<svg width="20" height="20" viewBox="0 0 20 20" fill="none" xmlns="http://www.w3.org/2000/svg">
<path d="M8.75 3.75H11.25C11.25 3.41848 11.1183 3.10054 10.8839 2.86612C10.6495 2.6317 10.3315 2.5 10 2.5C9.66848 2.5 9.35054 2.6317 9.11612 2.86612C8.8817 3.10054 8.75 3.41848 8.75 3.75ZM7.5 3.75C7.5 3.08696 7.76339 2.45107 8.23223 1.98223C8.70107 1.51339 9.33696 1.25 10 1.25C10.663 1.25 11.2989 1.51339 11.7678 1.98223C12.2366 2.45107 12.5 3.08696 12.5 3.75H17.5C17.6658 3.75 17.8247 3.81585 17.9419 3.93306C18.0592 4.05027 18.125 4.20924 18.125 4.375C18.125 4.54076 18.0592 4.69973 17.9419 4.81694C17.8247 4.93415 17.6658 5 17.5 5H16.795L15.2887 16.0475C15.1866 16.7962 14.8166 17.4825 14.2474 17.9793C13.6781 18.4762 12.9481 18.75 12.1925 18.75H7.8075C7.0519 18.75 6.32189 18.4762 5.75263 17.9793C5.18336 17.4825 4.81341 16.7962 4.71125 16.0475L3.205 5H2.5C2.33424 5 2.17527 4.93415 2.05806 4.81694C1.94085 4.69973 1.875 4.54076 1.875 4.375C1.875 4.20924 1.94085 4.05027 2.05806 3.93306C2.17527 3.81585 2.33424 3.75 2.5 3.75H7.5ZM8.75 8.125C8.75 7.95924 8.68415 7.80027 8.56694 7.68306C8.44973 7.56585 8.29076 7.5 8.125 7.5C7.95924 7.5 7.80027 7.56585 7.68306 7.68306C7.56585 7.80027 7.5 7.95924 7.5 8.125V14.375C7.5 14.5408 7.56585 14.6997 7.68306 14.8169C7.80027 14.9342 7.95924 15 8.125 15C8.29076 15 8.44973 14.9342 8.56694 14.8169C8.68415 14.6997 8.75 14.5408 8.75 14.375V8.125ZM11.875 7.5C11.7092 7.5 11.5503 7.56585 11.4331 7.68306C11.3158 7.80027 11.25 7.95924 11.25 8.125V14.375C11.25 14.5408 11.3158 14.6997 11.4331 14.8169C11.5503 14.9342 11.7092 15 11.875 15C12.0408 15 12.1997 14.9342 12.3169 14.8169C12.4342 14.6997 12.5 14.5408 12.5 14.375V8.125C12.5 7.95924 12.4342 7.80027 12.3169 7.68306C12.1997 7.56585 12.0408 7.5 11.875 7.5Z" fill="#111111" fill-opacity="0.6"/>
</svg>
